<svg width="415" height="330" viewBox="0 0 415 330" fill="none" xmlns="http://www.w3.org/2000/svg">
<g filter="url(#filter0_i)">
<rect width="415" height="330" fill="url(#paint0_linear)"/>
<path d="M67.896 81.397L68.2378 83.7407L68.7383 81.6289L72.2539 69.2266H74.2314L77.6616 81.6289L78.1499 83.7773L78.5283 81.3848L81.2871 69.2266H83.6431L79.334 87H77.1978L73.5356 74.0483L73.2549 72.6934L72.9741 74.0483L69.1777 87H67.0415L62.7446 69.2266H65.0884L67.896 81.397ZM88.1597 75.3911C89.1606 74.1623 90.4627 73.5479 92.0659 73.5479C94.8573 73.5479 96.2651 75.1226 96.2896 78.272V87H94.0312V78.2598C94.0231 77.3076 93.8034 76.6037 93.3721 76.1479C92.9489 75.6922 92.2856 75.4644 91.3823 75.4644C90.6499 75.4644 90.007 75.6597 89.4536 76.0503C88.9002 76.4409 88.4689 76.9536 88.1597 77.5884V87H85.9014V68.25H88.1597V75.3911ZM107.825 87C107.695 86.7396 107.589 86.2757 107.508 85.6084C106.458 86.6989 105.205 87.2441 103.748 87.2441C102.446 87.2441 101.376 86.8779 100.538 86.1455C99.7075 85.4049 99.2925 84.4691 99.2925 83.3379C99.2925 81.9626 99.8133 80.8965 100.855 80.1396C101.905 79.3747 103.378 78.9922 105.274 78.9922H107.471V77.9546C107.471 77.1652 107.235 76.5386 106.763 76.0747C106.291 75.6027 105.595 75.3667 104.676 75.3667C103.87 75.3667 103.195 75.5701 102.649 75.9771C102.104 76.384 101.832 76.8763 101.832 77.4541H99.561C99.561 76.7949 99.793 76.1602 100.257 75.5498C100.729 74.9313 101.364 74.443 102.161 74.085C102.967 73.7269 103.85 73.5479 104.81 73.5479C106.332 73.5479 107.524 73.9303 108.387 74.6953C109.249 75.4521 109.697 76.4979 109.729 77.8325V83.9116C109.729 85.1242 109.884 86.0885 110.193 86.8047V87H107.825ZM104.078 85.2788C104.786 85.2788 105.457 85.0957 106.092 84.7295C106.727 84.3633 107.186 83.8872 107.471 83.3013V80.5913H105.701C102.934 80.5913 101.551 81.401 101.551 83.0205C101.551 83.7285 101.787 84.2819 102.259 84.6807C102.731 85.0794 103.337 85.2788 104.078 85.2788ZM116.333 70.5938V73.792H118.799V75.5376H116.333V83.7285C116.333 84.2575 116.443 84.6562 116.663 84.9248C116.883 85.1852 117.257 85.3154 117.786 85.3154C118.047 85.3154 118.405 85.2666 118.86 85.1689V87C118.266 87.1628 117.688 87.2441 117.127 87.2441C116.118 87.2441 115.357 86.939 114.844 86.3286C114.332 85.7183 114.075 84.8516 114.075 83.7285V75.5376H111.67V73.792H114.075V70.5938H116.333ZM130.518 87H128.174V69.2266H130.518V87Z" fill="#829FE7"/>
<path d="M153.528 69.2266V81.3115C153.52 82.988 152.991 84.3592 151.941 85.4253C150.9 86.4914 149.484 87.0895 147.693 87.2197L147.071 87.2441C145.126 87.2441 143.576 86.7192 142.42 85.6694C141.264 84.6196 140.678 83.1751 140.662 81.3359V69.2266H142.981V81.2627C142.981 82.5485 143.335 83.5495 144.043 84.2656C144.751 84.9736 145.761 85.3276 147.071 85.3276C148.397 85.3276 149.41 84.9736 150.11 84.2656C150.818 83.5576 151.172 82.5607 151.172 81.2749V69.2266H153.528ZM164.563 83.4966C164.563 82.8862 164.332 82.4142 163.868 82.0806C163.412 81.7388 162.61 81.4458 161.463 81.2017C160.324 80.9575 159.416 80.6646 158.741 80.3228C158.073 79.981 157.577 79.5741 157.251 79.1021C156.934 78.63 156.775 78.0685 156.775 77.4175C156.775 76.3351 157.231 75.4196 158.143 74.6709C159.062 73.9222 160.234 73.5479 161.658 73.5479C163.156 73.5479 164.368 73.9344 165.296 74.7075C166.232 75.4806 166.7 76.4694 166.7 77.6738H164.429C164.429 77.0553 164.165 76.5223 163.636 76.0747C163.115 75.6271 162.456 75.4033 161.658 75.4033C160.836 75.4033 160.193 75.5824 159.729 75.9404C159.266 76.2985 159.034 76.7664 159.034 77.3442C159.034 77.8895 159.249 78.3005 159.681 78.5771C160.112 78.8538 160.889 79.1183 162.012 79.3706C163.143 79.6229 164.059 79.924 164.759 80.2739C165.459 80.6239 165.975 81.047 166.309 81.5435C166.651 82.0317 166.822 82.6299 166.822 83.3379C166.822 84.5179 166.35 85.466 165.406 86.1821C164.462 86.8901 163.237 87.2441 161.731 87.2441C160.674 87.2441 159.738 87.057 158.924 86.6826C158.11 86.3083 157.471 85.7874 157.007 85.1201C156.552 84.4447 156.324 83.7163 156.324 82.9351H158.582C158.623 83.6919 158.924 84.2941 159.485 84.7417C160.055 85.1812 160.804 85.4009 161.731 85.4009C162.586 85.4009 163.27 85.23 163.782 84.8882C164.303 84.5382 164.563 84.0744 164.563 83.4966ZM175.245 87.2441C173.454 87.2441 171.998 86.6582 170.875 85.4863C169.751 84.3063 169.19 82.7316 169.19 80.7622V80.3472C169.19 79.0369 169.438 77.8691 169.935 76.8438C170.439 75.8102 171.139 75.0046 172.034 74.4268C172.938 73.8408 173.914 73.5479 174.964 73.5479C176.681 73.5479 178.016 74.1134 178.968 75.2446C179.92 76.3758 180.396 77.9953 180.396 80.103V81.043H171.448C171.481 82.3451 171.859 83.3989 172.583 84.2046C173.316 85.0021 174.244 85.4009 175.367 85.4009C176.164 85.4009 176.84 85.2381 177.393 84.9126C177.946 84.5871 178.431 84.1558 178.846 83.6187L180.225 84.6929C179.118 86.3937 177.458 87.2441 175.245 87.2441ZM174.964 75.4033C174.052 75.4033 173.287 75.737 172.669 76.4043C172.05 77.0635 171.668 77.9912 171.521 79.1875H178.138V79.0166C178.073 77.8691 177.763 76.9821 177.21 76.3555C176.657 75.7207 175.908 75.4033 174.964 75.4033Z" fill="#D982E7"/>
<path d="M195.228 91.4678C193.787 91.0609 192.701 90.3895 191.968 89.4536C191.244 88.5259 190.882 87.297 190.882 85.7671V83.3379C190.882 81.3604 190.019 80.3716 188.294 80.3716V78.6016C190.019 78.6016 190.882 77.6169 190.882 75.6475V73.1084C190.898 71.6191 191.26 70.4188 191.968 69.5073C192.684 68.5877 193.771 67.9204 195.228 67.5054L195.691 68.9092C193.991 69.4544 193.14 70.8745 193.14 73.1694V75.6353C193.14 77.4826 192.461 78.7684 191.102 79.4927C192.461 80.2251 193.14 81.5231 193.14 83.3867V85.9014C193.165 88.1393 194.015 89.5269 195.691 90.064L195.228 91.4678ZM89.9385 109.877V116H87.876V100.359H93.6445C95.3561 100.359 96.6953 100.796 97.6621 101.67C98.6361 102.544 99.123 103.7 99.123 105.14C99.123 106.658 98.6468 107.829 97.6943 108.652C96.749 109.469 95.3919 109.877 93.623 109.877H89.9385ZM89.9385 108.19H93.6445C94.7474 108.19 95.5924 107.933 96.1797 107.417C96.7669 106.894 97.0605 106.142 97.0605 105.161C97.0605 104.23 96.7669 103.485 96.1797 102.927C95.5924 102.368 94.7868 102.078 93.7627 102.057H89.9385V108.19ZM107.062 106.16C106.761 106.11 106.435 106.085 106.084 106.085C104.781 106.085 103.896 106.64 103.431 107.75V116H101.443V104.377H103.377L103.409 105.72C104.061 104.681 104.985 104.162 106.181 104.162C106.567 104.162 106.861 104.212 107.062 104.312V106.16ZM108.157 110.081C108.157 108.942 108.379 107.918 108.823 107.009C109.274 106.099 109.897 105.397 110.692 104.903C111.494 104.409 112.408 104.162 113.432 104.162C115.014 104.162 116.293 104.71 117.267 105.806C118.248 106.901 118.738 108.359 118.738 110.178V110.317C118.738 111.449 118.52 112.466 118.083 113.368C117.653 114.263 117.034 114.962 116.225 115.463C115.423 115.964 114.499 116.215 113.453 116.215C111.878 116.215 110.599 115.667 109.618 114.571C108.644 113.476 108.157 112.025 108.157 110.221V110.081ZM110.155 110.317C110.155 111.606 110.452 112.641 111.047 113.422C111.648 114.202 112.451 114.593 113.453 114.593C114.463 114.593 115.265 114.199 115.859 113.411C116.454 112.616 116.751 111.506 116.751 110.081C116.751 108.806 116.447 107.775 115.838 106.987C115.236 106.192 114.434 105.795 113.432 105.795C112.451 105.795 111.659 106.185 111.058 106.966C110.456 107.746 110.155 108.864 110.155 110.317ZM122.208 116V105.913H120.371V104.377H122.208V103.185C122.208 101.938 122.541 100.975 123.207 100.295C123.873 99.6146 124.815 99.2744 126.032 99.2744C126.491 99.2744 126.945 99.3353 127.396 99.457L127.289 101.068C126.952 101.004 126.594 100.972 126.215 100.972C125.57 100.972 125.073 101.161 124.722 101.541C124.371 101.913 124.195 102.451 124.195 103.152V104.377H126.677V105.913H124.195V116H122.208ZM133.444 116.215C131.869 116.215 130.587 115.699 129.599 114.668C128.61 113.63 128.116 112.244 128.116 110.511V110.146C128.116 108.993 128.335 107.965 128.771 107.062C129.215 106.153 129.831 105.444 130.619 104.936C131.414 104.42 132.273 104.162 133.197 104.162C134.708 104.162 135.883 104.66 136.721 105.655C137.559 106.651 137.978 108.076 137.978 109.931V110.758H130.104C130.132 111.904 130.465 112.831 131.103 113.54C131.747 114.242 132.563 114.593 133.552 114.593C134.254 114.593 134.848 114.45 135.335 114.163C135.822 113.877 136.248 113.497 136.613 113.024L137.827 113.97C136.853 115.466 135.392 116.215 133.444 116.215ZM133.197 105.795C132.395 105.795 131.722 106.089 131.178 106.676C130.633 107.256 130.297 108.072 130.168 109.125H135.99V108.975C135.933 107.965 135.661 107.184 135.174 106.633C134.687 106.074 134.028 105.795 133.197 105.795ZM147.055 112.917C147.055 112.38 146.851 111.965 146.442 111.671C146.041 111.37 145.336 111.112 144.326 110.897C143.324 110.683 142.525 110.425 141.931 110.124C141.343 109.823 140.907 109.465 140.62 109.05C140.341 108.634 140.201 108.14 140.201 107.567C140.201 106.615 140.602 105.809 141.404 105.15C142.214 104.492 143.245 104.162 144.498 104.162C145.816 104.162 146.883 104.502 147.699 105.183C148.523 105.863 148.935 106.733 148.935 107.793H146.937C146.937 107.249 146.704 106.78 146.238 106.386C145.78 105.992 145.2 105.795 144.498 105.795C143.775 105.795 143.209 105.952 142.801 106.268C142.393 106.583 142.188 106.994 142.188 107.503C142.188 107.983 142.378 108.344 142.758 108.588C143.137 108.831 143.821 109.064 144.81 109.286C145.805 109.508 146.611 109.773 147.227 110.081C147.842 110.389 148.297 110.761 148.591 111.198C148.892 111.628 149.042 112.154 149.042 112.777C149.042 113.816 148.627 114.65 147.796 115.28C146.965 115.903 145.887 116.215 144.562 116.215C143.632 116.215 142.808 116.05 142.092 115.721C141.376 115.391 140.813 114.933 140.405 114.346C140.004 113.751 139.804 113.11 139.804 112.423H141.791C141.827 113.089 142.092 113.619 142.586 114.013C143.087 114.399 143.746 114.593 144.562 114.593C145.314 114.593 145.916 114.442 146.367 114.142C146.826 113.834 147.055 113.425 147.055 112.917ZM158.398 112.917C158.398 112.38 158.194 111.965 157.786 111.671C157.385 111.37 156.68 111.112 155.67 110.897C154.667 110.683 153.869 110.425 153.274 110.124C152.687 109.823 152.25 109.465 151.964 109.05C151.685 108.634 151.545 108.14 151.545 107.567C151.545 106.615 151.946 105.809 152.748 105.15C153.557 104.492 154.589 104.162 155.842 104.162C157.16 104.162 158.227 104.502 159.043 105.183C159.867 105.863 160.278 106.733 160.278 107.793H158.28C158.28 107.249 158.048 106.78 157.582 106.386C157.124 105.992 156.544 105.795 155.842 105.795C155.118 105.795 154.553 105.952 154.145 106.268C153.736 106.583 153.532 106.994 153.532 107.503C153.532 107.983 153.722 108.344 154.102 108.588C154.481 108.831 155.165 109.064 156.153 109.286C157.149 109.508 157.954 109.773 158.57 110.081C159.186 110.389 159.641 110.761 159.935 111.198C160.235 111.628 160.386 112.154 160.386 112.777C160.386 113.816 159.97 114.65 159.14 115.28C158.309 115.903 157.231 116.215 155.906 116.215C154.975 116.215 154.152 116.05 153.436 115.721C152.719 115.391 152.157 114.933 151.749 114.346C151.348 113.751 151.147 113.11 151.147 112.423H153.135C153.171 113.089 153.436 113.619 153.93 114.013C154.431 114.399 155.09 114.593 155.906 114.593C156.658 114.593 157.26 114.442 157.711 114.142C158.169 113.834 158.398 113.425 158.398 112.917ZM165.134 116H163.146V104.377H165.134V116ZM162.985 101.294C162.985 100.972 163.082 100.7 163.275 100.478C163.476 100.256 163.77 100.145 164.156 100.145C164.543 100.145 164.837 100.256 165.037 100.478C165.238 100.7 165.338 100.972 165.338 101.294C165.338 101.616 165.238 101.885 165.037 102.1C164.837 102.314 164.543 102.422 164.156 102.422C163.77 102.422 163.476 102.314 163.275 102.1C163.082 101.885 162.985 101.616 162.985 101.294ZM167.798 110.081C167.798 108.942 168.02 107.918 168.464 107.009C168.915 106.099 169.538 105.397 170.333 104.903C171.135 104.409 172.048 104.162 173.072 104.162C174.655 104.162 175.933 104.71 176.907 105.806C177.888 106.901 178.379 108.359 178.379 110.178V110.317C178.379 111.449 178.16 112.466 177.724 113.368C177.294 114.263 176.674 114.962 175.865 115.463C175.063 115.964 174.139 116.215 173.094 116.215C171.518 116.215 170.24 115.667 169.259 114.571C168.285 113.476 167.798 112.025 167.798 110.221V110.081ZM169.796 110.317C169.796 111.606 170.093 112.641 170.688 113.422C171.289 114.202 172.091 114.593 173.094 114.593C174.104 114.593 174.906 114.199 175.5 113.411C176.094 112.616 176.392 111.506 176.392 110.081C176.392 108.806 176.087 107.775 175.479 106.987C174.877 106.192 174.075 105.795 173.072 105.795C172.091 105.795 171.3 106.185 170.698 106.966C170.097 107.746 169.796 108.864 169.796 110.317ZM182.751 104.377L182.815 105.838C183.703 104.721 184.864 104.162 186.296 104.162C188.752 104.162 189.991 105.548 190.013 108.319V116H188.025V108.309C188.018 107.471 187.825 106.851 187.445 106.45C187.073 106.049 186.489 105.849 185.694 105.849C185.05 105.849 184.484 106.021 183.997 106.364C183.51 106.708 183.131 107.159 182.858 107.718V116H180.871V104.377H182.751ZM192.945 114.958C192.945 114.614 193.046 114.328 193.246 114.099C193.454 113.869 193.762 113.755 194.17 113.755C194.578 113.755 194.886 113.869 195.094 114.099C195.309 114.328 195.416 114.614 195.416 114.958C195.416 115.287 195.309 115.563 195.094 115.785C194.886 116.007 194.578 116.118 194.17 116.118C193.762 116.118 193.454 116.007 193.246 115.785C193.046 115.563 192.945 115.287 192.945 114.958ZM192.956 105.473C192.956 105.129 193.056 104.842 193.257 104.613C193.465 104.384 193.772 104.27 194.181 104.27C194.589 104.27 194.897 104.384 195.104 104.613C195.319 104.842 195.427 105.129 195.427 105.473C195.427 105.802 195.319 106.078 195.104 106.3C194.897 106.522 194.589 106.633 194.181 106.633C193.772 106.633 193.465 106.522 193.257 106.3C193.056 106.078 192.956 105.802 192.956 105.473ZM99.9414 134.771H93.1631V140.313H101.037V142H91.1006V126.359H100.93V128.057H93.1631V133.084H99.9414V134.771ZM107.192 134.62L109.771 130.377H112.091L108.288 136.124L112.209 142H109.91L107.225 137.649L104.539 142H102.229L106.15 136.124L102.348 130.377H104.646L107.192 134.62ZM124.025 136.317C124.025 138.086 123.621 139.511 122.812 140.593C122.002 141.674 120.907 142.215 119.524 142.215C118.114 142.215 117.004 141.767 116.194 140.872V146.469H114.207V130.377H116.022L116.119 131.666C116.928 130.663 118.053 130.162 119.492 130.162C120.889 130.162 121.992 130.688 122.801 131.741C123.617 132.794 124.025 134.258 124.025 136.135V136.317ZM122.038 136.092C122.038 134.781 121.759 133.746 121.2 132.987C120.642 132.228 119.875 131.849 118.901 131.849C117.698 131.849 116.796 132.382 116.194 133.449V139.003C116.789 140.063 117.698 140.593 118.923 140.593C119.875 140.593 120.631 140.217 121.189 139.465C121.755 138.706 122.038 137.581 122.038 136.092ZM131.384 142.215C129.808 142.215 128.526 141.699 127.538 140.668C126.55 139.63 126.056 138.244 126.056 136.511V136.146C126.056 134.993 126.274 133.965 126.711 133.062C127.155 132.153 127.771 131.444 128.559 130.936C129.354 130.42 130.213 130.162 131.137 130.162C132.648 130.162 133.822 130.66 134.66 131.655C135.498 132.651 135.917 134.076 135.917 135.931V136.758H128.043C128.072 137.904 128.405 138.831 129.042 139.54C129.687 140.242 130.503 140.593 131.491 140.593C132.193 140.593 132.787 140.45 133.274 140.163C133.761 139.877 134.188 139.497 134.553 139.024L135.767 139.97C134.793 141.466 133.332 142.215 131.384 142.215ZM131.137 131.795C130.335 131.795 129.661 132.089 129.117 132.676C128.573 133.256 128.236 134.072 128.107 135.125H133.93V134.975C133.872 133.965 133.6 133.184 133.113 132.633C132.626 132.074 131.967 131.795 131.137 131.795ZM143.845 132.16C143.544 132.11 143.218 132.085 142.867 132.085C141.564 132.085 140.679 132.64 140.214 133.75V142H138.227V130.377H140.16L140.192 131.72C140.844 130.681 141.768 130.162 142.964 130.162C143.351 130.162 143.644 130.212 143.845 130.312V132.16ZM148.915 127.562V130.377H151.085V131.913H148.915V139.121C148.915 139.587 149.012 139.938 149.205 140.174C149.398 140.403 149.728 140.518 150.193 140.518C150.423 140.518 150.738 140.475 151.139 140.389V142C150.616 142.143 150.107 142.215 149.613 142.215C148.725 142.215 148.056 141.946 147.604 141.409C147.153 140.872 146.928 140.109 146.928 139.121V131.913H144.812V130.377H146.928V127.562H148.915ZM153.352 140.958C153.352 140.614 153.452 140.328 153.652 140.099C153.86 139.869 154.168 139.755 154.576 139.755C154.984 139.755 155.292 139.869 155.5 140.099C155.715 140.328 155.822 140.614 155.822 140.958C155.822 141.287 155.715 141.563 155.5 141.785C155.292 142.007 154.984 142.118 154.576 142.118C154.168 142.118 153.86 142.007 153.652 141.785C153.452 141.563 153.352 141.287 153.352 140.958ZM153.362 131.473C153.362 131.129 153.463 130.842 153.663 130.613C153.871 130.384 154.179 130.27 154.587 130.27C154.995 130.27 155.303 130.384 155.511 130.613C155.726 130.842 155.833 131.129 155.833 131.473C155.833 131.802 155.726 132.078 155.511 132.3C155.303 132.522 154.995 132.633 154.587 132.633C154.179 132.633 153.871 132.522 153.663 132.3C153.463 132.078 153.362 131.802 153.362 131.473ZM99.7266 161.093H93.1631V168H91.1006V152.359H100.79V154.057H93.1631V159.406H99.7266V161.093ZM108.288 158.16C107.987 158.11 107.661 158.085 107.311 158.085C106.007 158.085 105.123 158.64 104.657 159.75V168H102.67V156.377H104.604L104.636 157.72C105.287 156.681 106.211 156.162 107.407 156.162C107.794 156.162 108.088 156.212 108.288 156.312V158.16ZM116.871 168C116.757 167.771 116.663 167.363 116.592 166.775C115.668 167.735 114.565 168.215 113.283 168.215C112.137 168.215 111.196 167.893 110.458 167.248C109.728 166.596 109.362 165.773 109.362 164.777C109.362 163.567 109.821 162.629 110.737 161.963C111.661 161.29 112.957 160.953 114.626 160.953H116.56V160.04C116.56 159.345 116.352 158.794 115.937 158.386C115.521 157.97 114.909 157.763 114.1 157.763C113.391 157.763 112.796 157.942 112.316 158.3C111.837 158.658 111.597 159.091 111.597 159.6H109.599C109.599 159.02 109.803 158.461 110.211 157.924C110.626 157.38 111.185 156.95 111.887 156.635C112.596 156.32 113.373 156.162 114.218 156.162C115.557 156.162 116.606 156.499 117.365 157.172C118.124 157.838 118.518 158.758 118.547 159.933V165.282C118.547 166.349 118.683 167.198 118.955 167.828V168H116.871ZM113.573 166.485C114.196 166.485 114.787 166.324 115.346 166.002C115.904 165.68 116.309 165.261 116.56 164.745V162.36H115.002C112.567 162.36 111.35 163.073 111.35 164.498C111.35 165.121 111.557 165.608 111.973 165.959C112.388 166.31 112.922 166.485 113.573 166.485ZM123.531 156.377L123.585 157.666C124.437 156.663 125.587 156.162 127.033 156.162C128.659 156.162 129.765 156.785 130.353 158.031C130.739 157.473 131.241 157.021 131.856 156.678C132.479 156.334 133.214 156.162 134.059 156.162C136.608 156.162 137.904 157.512 137.947 160.212V168H135.96V160.33C135.96 159.499 135.77 158.88 135.391 158.472C135.011 158.056 134.374 157.849 133.479 157.849C132.741 157.849 132.129 158.071 131.642 158.515C131.155 158.951 130.872 159.542 130.793 160.287V168H128.795V160.384C128.795 158.694 127.968 157.849 126.313 157.849C125.01 157.849 124.118 158.404 123.639 159.514V168H121.651V156.377H123.531ZM145.778 168.215C144.203 168.215 142.921 167.699 141.933 166.668C140.944 165.63 140.45 164.244 140.45 162.511V162.146C140.45 160.993 140.669 159.965 141.105 159.062C141.549 158.153 142.165 157.444 142.953 156.936C143.748 156.42 144.607 156.162 145.531 156.162C147.042 156.162 148.217 156.66 149.055 157.655C149.893 158.651 150.312 160.076 150.312 161.931V162.758H142.438C142.466 163.904 142.799 164.831 143.437 165.54C144.081 166.242 144.897 166.593 145.886 166.593C146.588 166.593 147.182 166.45 147.669 166.163C148.156 165.877 148.582 165.497 148.947 165.024L150.161 165.97C149.187 167.466 147.726 168.215 145.778 168.215ZM145.531 157.795C144.729 157.795 144.056 158.089 143.512 158.676C142.967 159.256 142.631 160.072 142.502 161.125H148.324V160.975C148.267 159.965 147.995 159.184 147.508 158.633C147.021 158.074 146.362 157.795 145.531 157.795ZM156.306 163.069L156.606 165.132L157.047 163.273L160.141 152.359H161.881L164.899 163.273L165.329 165.164L165.662 163.059L168.09 152.359H170.163L166.371 168H164.491L161.269 156.603L161.021 155.41L160.774 156.603L157.434 168H155.554L151.772 152.359H153.835L156.306 163.069ZM171.28 162.081C171.28 160.942 171.502 159.918 171.946 159.009C172.397 158.099 173.021 157.397 173.815 156.903C174.618 156.409 175.531 156.162 176.555 156.162C178.137 156.162 179.416 156.71 180.39 157.806C181.371 158.901 181.861 160.359 181.861 162.178V162.317C181.861 163.449 181.643 164.466 181.206 165.368C180.776 166.263 180.157 166.962 179.348 167.463C178.546 167.964 177.622 168.215 176.576 168.215C175.001 168.215 173.722 167.667 172.741 166.571C171.767 165.476 171.28 164.025 171.28 162.221V162.081ZM173.278 162.317C173.278 163.606 173.576 164.641 174.17 165.422C174.771 166.202 175.574 166.593 176.576 166.593C177.586 166.593 178.388 166.199 178.982 165.411C179.577 164.616 179.874 163.506 179.874 162.081C179.874 160.806 179.57 159.775 178.961 158.987C178.359 158.192 177.557 157.795 176.555 157.795C175.574 157.795 174.782 158.185 174.181 158.966C173.579 159.746 173.278 160.864 173.278 162.317ZM189.972 158.16C189.671 158.11 189.345 158.085 188.994 158.085C187.691 158.085 186.806 158.64 186.341 159.75V168H184.354V156.377H186.287L186.319 157.72C186.971 156.681 187.895 156.162 189.091 156.162C189.478 156.162 189.771 156.212 189.972 156.312V158.16ZM195.053 162.618L193.807 163.918V168H191.819V151.5H193.807V161.479L194.87 160.201L198.49 156.377H200.907L196.385 161.232L201.434 168H199.103L195.053 162.618ZM209.727 164.917C209.727 164.38 209.522 163.965 209.114 163.671C208.713 163.37 208.008 163.112 206.998 162.897C205.995 162.683 205.197 162.425 204.603 162.124C204.015 161.823 203.578 161.465 203.292 161.05C203.013 160.634 202.873 160.14 202.873 159.567C202.873 158.615 203.274 157.809 204.076 157.15C204.885 156.492 205.917 156.162 207.17 156.162C208.488 156.162 209.555 156.502 210.371 157.183C211.195 157.863 211.606 158.733 211.606 159.793H209.608C209.608 159.249 209.376 158.78 208.91 158.386C208.452 157.992 207.872 157.795 207.17 157.795C206.447 157.795 205.881 157.952 205.473 158.268C205.064 158.583 204.86 158.994 204.86 159.503C204.86 159.983 205.05 160.344 205.43 160.588C205.809 160.831 206.493 161.064 207.481 161.286C208.477 161.508 209.283 161.773 209.898 162.081C210.514 162.389 210.969 162.761 211.263 163.198C211.563 163.628 211.714 164.154 211.714 164.777C211.714 165.816 211.299 166.65 210.468 167.28C209.637 167.903 208.559 168.215 207.234 168.215C206.303 168.215 205.48 168.05 204.764 167.721C204.048 167.391 203.485 166.933 203.077 166.346C202.676 165.751 202.476 165.11 202.476 164.423H204.463C204.499 165.089 204.764 165.619 205.258 166.013C205.759 166.399 206.418 166.593 207.234 166.593C207.986 166.593 208.588 166.442 209.039 166.142C209.497 165.834 209.727 165.425 209.727 164.917ZM214.238 166.958C214.238 166.614 214.339 166.328 214.539 166.099C214.747 165.869 215.055 165.755 215.463 165.755C215.871 165.755 216.179 165.869 216.387 166.099C216.602 166.328 216.709 166.614 216.709 166.958C216.709 167.287 216.602 167.563 216.387 167.785C216.179 168.007 215.871 168.118 215.463 168.118C215.055 168.118 214.747 168.007 214.539 167.785C214.339 167.563 214.238 167.287 214.238 166.958ZM214.249 157.473C214.249 157.129 214.349 156.842 214.55 156.613C214.757 156.384 215.065 156.27 215.474 156.27C215.882 156.27 216.19 156.384 216.397 156.613C216.612 156.842 216.72 157.129 216.72 157.473C216.72 157.802 216.612 158.078 216.397 158.3C216.19 158.522 215.882 158.633 215.474 158.633C215.065 158.633 214.757 158.522 214.55 158.3C214.349 158.078 214.249 157.802 214.249 157.473ZM223.745 151.758H221.693V169.719H223.745V171.352H219.695V150.125H223.745V151.758ZM94.8389 228.125H98.8994V249.352H94.8389V247.719H96.9121V229.758H94.8389V228.125ZM74.6343 278.064C76.2863 277.535 77.1408 276.188 77.1978 274.023V271.338C77.1978 269.458 77.9342 268.176 79.4072 267.493C77.9342 266.825 77.1978 265.544 77.1978 263.647V261.169C77.1978 258.875 76.3473 257.454 74.6465 256.909L75.1104 255.505C76.5508 255.912 77.6331 256.576 78.3574 257.495C79.0817 258.407 79.4479 259.615 79.4561 261.121V263.684C79.4561 265.629 80.3187 266.602 82.0439 266.602V268.372C80.3187 268.372 79.4561 269.36 79.4561 271.338V273.804C79.4561 275.334 79.0858 276.558 78.3452 277.478C77.6128 278.398 76.5345 279.061 75.1104 279.468L74.6343 278.064Z" fill="white"/>
<path d="M198.649 116V100.359H203.064C204.425 100.359 205.628 100.66 206.674 101.262C207.719 101.863 208.525 102.719 209.091 103.829C209.664 104.939 209.954 106.214 209.961 107.653V108.652C209.961 110.128 209.674 111.42 209.102 112.53C208.536 113.64 207.723 114.493 206.663 115.087C205.61 115.681 204.382 115.986 202.979 116H198.649ZM200.712 102.057V114.313H202.882C204.472 114.313 205.707 113.819 206.588 112.831C207.476 111.843 207.92 110.436 207.92 108.609V107.696C207.92 105.92 207.501 104.542 206.663 103.561C205.832 102.572 204.651 102.071 203.118 102.057H200.712ZM217.599 116.215C216.023 116.215 214.741 115.699 213.753 114.668C212.765 113.63 212.271 112.244 212.271 110.511V110.146C212.271 108.993 212.489 107.965 212.926 107.062C213.37 106.153 213.986 105.444 214.773 104.936C215.568 104.42 216.428 104.162 217.352 104.162C218.863 104.162 220.037 104.66 220.875 105.655C221.713 106.651 222.132 108.076 222.132 109.931V110.758H214.258C214.286 111.904 214.619 112.831 215.257 113.54C215.901 114.242 216.718 114.593 217.706 114.593C218.408 114.593 219.002 114.45 219.489 114.163C219.976 113.877 220.402 113.497 220.768 113.024L221.981 113.97C221.007 115.466 219.547 116.215 217.599 116.215ZM217.352 105.795C216.549 105.795 215.876 106.089 215.332 106.676C214.788 107.256 214.451 108.072 214.322 109.125H220.145V108.975C220.087 107.965 219.815 107.184 219.328 106.633C218.841 106.074 218.182 105.795 217.352 105.795ZM228.126 113.304L231.005 104.377H233.035L228.867 116H227.353L223.142 104.377H225.172L228.126 113.304ZM239.62 116.215C238.045 116.215 236.763 115.699 235.774 114.668C234.786 113.63 234.292 112.244 234.292 110.511V110.146C234.292 108.993 234.51 107.965 234.947 107.062C235.391 106.153 236.007 105.444 236.795 104.936C237.59 104.42 238.449 104.162 239.373 104.162C240.884 104.162 242.059 104.66 242.896 105.655C243.734 106.651 244.153 108.076 244.153 109.931V110.758H236.279C236.308 111.904 236.641 112.831 237.278 113.54C237.923 114.242 238.739 114.593 239.728 114.593C240.429 114.593 241.024 114.45 241.511 114.163C241.998 113.877 242.424 113.497 242.789 113.024L244.003 113.97C243.029 115.466 241.568 116.215 239.62 116.215ZM239.373 105.795C238.571 105.795 237.898 106.089 237.354 106.676C236.809 107.256 236.473 108.072 236.344 109.125H242.166V108.975C242.109 107.965 241.837 107.184 241.35 106.633C240.863 106.074 240.204 105.795 239.373 105.795ZM248.622 116H246.635V99.5H248.622V116ZM251.286 110.081C251.286 108.942 251.508 107.918 251.952 107.009C252.403 106.099 253.026 105.397 253.821 104.903C254.623 104.409 255.536 104.162 256.561 104.162C258.143 104.162 259.422 104.71 260.396 105.806C261.377 106.901 261.867 108.359 261.867 110.178V110.317C261.867 111.449 261.649 112.466 261.212 113.368C260.782 114.263 260.163 114.962 259.354 115.463C258.551 115.964 257.628 116.215 256.582 116.215C255.007 116.215 253.728 115.667 252.747 114.571C251.773 113.476 251.286 112.025 251.286 110.221V110.081ZM253.284 110.317C253.284 111.606 253.581 112.641 254.176 113.422C254.777 114.202 255.579 114.593 256.582 114.593C257.592 114.593 258.394 114.199 258.988 113.411C259.583 112.616 259.88 111.506 259.88 110.081C259.88 108.806 259.576 107.775 258.967 106.987C258.365 106.192 257.563 105.795 256.561 105.795C255.579 105.795 254.788 106.185 254.187 106.966C253.585 107.746 253.284 108.864 253.284 110.317ZM274.178 110.317C274.178 112.086 273.773 113.511 272.964 114.593C272.155 115.674 271.059 116.215 269.677 116.215C268.266 116.215 267.156 115.767 266.347 114.872V120.469H264.359V104.377H266.175L266.271 105.666C267.081 104.663 268.205 104.162 269.645 104.162C271.041 104.162 272.144 104.688 272.953 105.741C273.77 106.794 274.178 108.258 274.178 110.135V110.317ZM272.19 110.092C272.19 108.781 271.911 107.746 271.353 106.987C270.794 106.228 270.028 105.849 269.054 105.849C267.851 105.849 266.948 106.382 266.347 107.449V113.003C266.941 114.063 267.851 114.593 269.075 114.593C270.028 114.593 270.783 114.217 271.342 113.465C271.908 112.706 272.19 111.581 272.19 110.092ZM281.536 116.215C279.961 116.215 278.679 115.699 277.69 114.668C276.702 113.63 276.208 112.244 276.208 110.511V110.146C276.208 108.993 276.426 107.965 276.863 107.062C277.307 106.153 277.923 105.444 278.711 104.936C279.506 104.42 280.365 104.162 281.289 104.162C282.8 104.162 283.975 104.66 284.812 105.655C285.65 106.651 286.069 108.076 286.069 109.931V110.758H278.195C278.224 111.904 278.557 112.831 279.194 113.54C279.839 114.242 280.655 114.593 281.644 114.593C282.345 114.593 282.94 114.45 283.427 114.163C283.914 113.877 284.34 113.497 284.705 113.024L285.919 113.97C284.945 115.466 283.484 116.215 281.536 116.215ZM281.289 105.795C280.487 105.795 279.814 106.089 279.27 106.676C278.725 107.256 278.389 108.072 278.26 109.125H284.082V108.975C284.025 107.965 283.753 107.184 283.266 106.633C282.779 106.074 282.12 105.795 281.289 105.795ZM293.997 106.16C293.696 106.11 293.37 106.085 293.02 106.085C291.716 106.085 290.832 106.64 290.366 107.75V116H288.379V104.377H290.312L290.345 105.72C290.996 104.681 291.92 104.162 293.116 104.162C293.503 104.162 293.797 104.212 293.997 104.312V106.16ZM171.065 126.359H173.139V137.435C173.139 138.931 172.688 140.102 171.785 140.947C170.89 141.792 169.694 142.215 168.197 142.215C166.643 142.215 165.433 141.817 164.566 141.022C163.7 140.228 163.267 139.114 163.267 137.682H165.329C165.329 138.577 165.573 139.275 166.06 139.776C166.554 140.278 167.266 140.528 168.197 140.528C169.049 140.528 169.737 140.26 170.26 139.723C170.79 139.186 171.058 138.434 171.065 137.467V126.359ZM183.516 142C183.401 141.771 183.308 141.363 183.236 140.775C182.312 141.735 181.21 142.215 179.928 142.215C178.782 142.215 177.84 141.893 177.103 141.248C176.372 140.596 176.007 139.773 176.007 138.777C176.007 137.567 176.465 136.629 177.382 135.963C178.306 135.29 179.602 134.953 181.271 134.953H183.204V134.04C183.204 133.345 182.996 132.794 182.581 132.386C182.166 131.97 181.553 131.763 180.744 131.763C180.035 131.763 179.441 131.942 178.961 132.3C178.481 132.658 178.241 133.091 178.241 133.6H176.243C176.243 133.02 176.447 132.461 176.855 131.924C177.271 131.38 177.829 130.95 178.531 130.635C179.24 130.32 180.017 130.162 180.862 130.162C182.201 130.162 183.251 130.499 184.01 131.172C184.769 131.838 185.163 132.758 185.191 133.933V139.282C185.191 140.349 185.327 141.198 185.6 141.828V142H183.516ZM180.218 140.485C180.841 140.485 181.432 140.324 181.99 140.002C182.549 139.68 182.953 139.261 183.204 138.745V136.36H181.646C179.212 136.36 177.994 137.073 177.994 138.498C177.994 139.121 178.202 139.608 178.617 139.959C179.033 140.31 179.566 140.485 180.218 140.485ZM191.97 139.304L194.849 130.377H196.879L192.711 142H191.196L186.985 130.377H189.016L191.97 139.304ZM205.795 142C205.68 141.771 205.587 141.363 205.516 140.775C204.592 141.735 203.489 142.215 202.207 142.215C201.061 142.215 200.119 141.893 199.382 141.248C198.651 140.596 198.286 139.773 198.286 138.777C198.286 137.567 198.744 136.629 199.661 135.963C200.585 135.29 201.881 134.953 203.55 134.953H205.483V134.04C205.483 133.345 205.276 132.794 204.86 132.386C204.445 131.97 203.833 131.763 203.023 131.763C202.314 131.763 201.72 131.942 201.24 132.3C200.76 132.658 200.521 133.091 200.521 133.6H198.522C198.522 133.02 198.727 132.461 199.135 131.924C199.55 131.38 200.109 130.95 200.811 130.635C201.52 130.32 202.297 130.162 203.142 130.162C204.481 130.162 205.53 130.499 206.289 131.172C207.048 131.838 207.442 132.758 207.471 133.933V139.282C207.471 140.349 207.607 141.198 207.879 141.828V142H205.795ZM202.497 140.485C203.12 140.485 203.711 140.324 204.27 140.002C204.828 139.68 205.233 139.261 205.483 138.745V136.36H203.926C201.491 136.36 200.273 137.073 200.273 138.498C200.273 139.121 200.481 139.608 200.896 139.959C201.312 140.31 201.845 140.485 202.497 140.485ZM217.354 138.917C217.354 138.38 217.149 137.965 216.741 137.671C216.34 137.37 215.635 137.112 214.625 136.897C213.622 136.683 212.824 136.425 212.229 136.124C211.642 135.823 211.205 135.465 210.919 135.05C210.64 134.634 210.5 134.14 210.5 133.567C210.5 132.615 210.901 131.809 211.703 131.15C212.512 130.492 213.544 130.162 214.797 130.162C216.115 130.162 217.182 130.502 217.998 131.183C218.822 131.863 219.233 132.733 219.233 133.793H217.235C217.235 133.249 217.003 132.78 216.537 132.386C216.079 131.992 215.499 131.795 214.797 131.795C214.074 131.795 213.508 131.952 213.1 132.268C212.691 132.583 212.487 132.994 212.487 133.503C212.487 133.983 212.677 134.344 213.057 134.588C213.436 134.831 214.12 135.064 215.108 135.286C216.104 135.508 216.91 135.773 217.525 136.081C218.141 136.389 218.596 136.761 218.89 137.198C219.19 137.628 219.341 138.154 219.341 138.777C219.341 139.816 218.925 140.65 218.095 141.28C217.264 141.903 216.186 142.215 214.861 142.215C213.93 142.215 213.107 142.05 212.391 141.721C211.674 141.391 211.112 140.933 210.704 140.346C210.303 139.751 210.103 139.11 210.103 138.423H212.09C212.126 139.089 212.391 139.619 212.885 140.013C213.386 140.399 214.045 140.593 214.861 140.593C215.613 140.593 216.215 140.442 216.666 140.142C217.124 139.834 217.354 139.425 217.354 138.917ZM226.592 140.593C227.301 140.593 227.92 140.378 228.45 139.948C228.98 139.519 229.274 138.981 229.331 138.337H231.211C231.175 139.003 230.946 139.637 230.523 140.238C230.101 140.84 229.535 141.32 228.826 141.678C228.124 142.036 227.38 142.215 226.592 142.215C225.009 142.215 223.749 141.688 222.811 140.636C221.88 139.576 221.414 138.129 221.414 136.296V135.963C221.414 134.831 221.622 133.825 222.037 132.944C222.452 132.063 223.047 131.38 223.82 130.893C224.601 130.406 225.521 130.162 226.581 130.162C227.884 130.162 228.966 130.552 229.825 131.333C230.692 132.114 231.154 133.127 231.211 134.373H229.331C229.274 133.621 228.987 133.005 228.472 132.525C227.963 132.038 227.333 131.795 226.581 131.795C225.571 131.795 224.787 132.16 224.229 132.891C223.677 133.614 223.401 134.663 223.401 136.038V136.414C223.401 137.753 223.677 138.785 224.229 139.508C224.78 140.231 225.568 140.593 226.592 140.593ZM239.063 132.16C238.763 132.11 238.437 132.085 238.086 132.085C236.783 132.085 235.898 132.64 235.433 133.75V142H233.445V130.377H235.379L235.411 131.72C236.063 130.681 236.987 130.162 238.183 130.162C238.569 130.162 238.863 130.212 239.063 130.312V132.16ZM243.06 142H241.072V130.377H243.06V142ZM240.911 127.294C240.911 126.972 241.008 126.7 241.201 126.478C241.402 126.256 241.695 126.145 242.082 126.145C242.469 126.145 242.762 126.256 242.963 126.478C243.163 126.7 243.264 126.972 243.264 127.294C243.264 127.616 243.163 127.885 242.963 128.1C242.762 128.314 242.469 128.422 242.082 128.422C241.695 128.422 241.402 128.314 241.201 128.1C241.008 127.885 240.911 127.616 240.911 127.294ZM256.068 136.317C256.068 138.086 255.664 139.511 254.854 140.593C254.045 141.674 252.95 142.215 251.567 142.215C250.157 142.215 249.047 141.767 248.237 140.872V146.469H246.25V130.377H248.065L248.162 131.666C248.971 130.663 250.096 130.162 251.535 130.162C252.932 130.162 254.035 130.688 254.844 131.741C255.66 132.794 256.068 134.258 256.068 136.135V136.317ZM254.081 136.092C254.081 134.781 253.802 133.746 253.243 132.987C252.685 132.228 251.918 131.849 250.944 131.849C249.741 131.849 248.839 132.382 248.237 133.449V139.003C248.832 140.063 249.741 140.593 250.966 140.593C251.918 140.593 252.674 140.217 253.232 139.465C253.798 138.706 254.081 137.581 254.081 136.092ZM261.3 127.562V130.377H263.47V131.913H261.3V139.121C261.3 139.587 261.396 139.938 261.59 140.174C261.783 140.403 262.113 140.518 262.578 140.518C262.807 140.518 263.122 140.475 263.523 140.389V142C263.001 142.143 262.492 142.215 261.998 142.215C261.11 142.215 260.44 141.946 259.989 141.409C259.538 140.872 259.312 140.109 259.312 139.121V131.913H257.196V130.377H259.312V127.562H261.3ZM101.735 191.261L106.204 178.359H108.46L102.659 194H100.833L95.043 178.359H97.2881L101.735 191.261ZM117.129 192.851C116.355 193.76 115.22 194.215 113.724 194.215C112.485 194.215 111.539 193.857 110.888 193.141C110.243 192.417 109.917 191.35 109.91 189.939V182.377H111.897V189.886C111.897 191.647 112.614 192.528 114.046 192.528C115.564 192.528 116.574 191.963 117.075 190.831V182.377H119.062V194H117.172L117.129 192.851ZM126.915 194.215C125.34 194.215 124.058 193.699 123.069 192.668C122.081 191.63 121.587 190.244 121.587 188.511V188.146C121.587 186.993 121.805 185.965 122.242 185.062C122.686 184.153 123.302 183.444 124.09 182.936C124.885 182.42 125.744 182.162 126.668 182.162C128.179 182.162 129.354 182.66 130.191 183.655C131.029 184.651 131.448 186.076 131.448 187.931V188.758H123.574C123.603 189.904 123.936 190.831 124.573 191.54C125.218 192.242 126.034 192.593 127.022 192.593C127.724 192.593 128.319 192.45 128.806 192.163C129.293 191.877 129.719 191.497 130.084 191.024L131.298 191.97C130.324 193.466 128.863 194.215 126.915 194.215ZM126.668 183.795C125.866 183.795 125.193 184.089 124.648 184.676C124.104 185.256 123.768 186.072 123.639 187.125H129.461V186.975C129.404 185.965 129.132 185.184 128.645 184.633C128.158 184.074 127.499 183.795 126.668 183.795ZM140.622 178.359H142.695V189.435C142.695 190.931 142.244 192.102 141.342 192.947C140.447 193.792 139.251 194.215 137.754 194.215C136.2 194.215 134.99 193.817 134.123 193.022C133.257 192.228 132.823 191.114 132.823 189.682H134.886C134.886 190.577 135.129 191.275 135.616 191.776C136.11 192.278 136.823 192.528 137.754 192.528C138.606 192.528 139.294 192.26 139.816 191.723C140.346 191.186 140.615 190.434 140.622 189.467V178.359ZM152.664 190.917C152.664 190.38 152.46 189.965 152.052 189.671C151.651 189.37 150.945 189.112 149.936 188.897C148.933 188.683 148.134 188.425 147.54 188.124C146.953 187.823 146.516 187.465 146.229 187.05C145.95 186.634 145.811 186.14 145.811 185.567C145.811 184.615 146.212 183.809 147.014 183.15C147.823 182.492 148.854 182.162 150.107 182.162C151.425 182.162 152.492 182.502 153.309 183.183C154.132 183.863 154.544 184.733 154.544 185.793H152.546C152.546 185.249 152.313 184.78 151.848 184.386C151.389 183.992 150.809 183.795 150.107 183.795C149.384 183.795 148.818 183.952 148.41 184.268C148.002 184.583 147.798 184.994 147.798 185.503C147.798 185.983 147.988 186.344 148.367 186.588C148.747 186.831 149.431 187.064 150.419 187.286C151.414 187.508 152.22 187.773 152.836 188.081C153.452 188.389 153.907 188.761 154.2 189.198C154.501 189.628 154.651 190.154 154.651 190.777C154.651 191.816 154.236 192.65 153.405 193.28C152.575 193.903 151.497 194.215 150.172 194.215C149.241 194.215 148.417 194.05 147.701 193.721C146.985 193.391 146.423 192.933 146.015 192.346C145.614 191.751 145.413 191.11 145.413 190.423H147.4C147.436 191.089 147.701 191.619 148.195 192.013C148.697 192.399 149.355 192.593 150.172 192.593C150.924 192.593 151.525 192.442 151.977 192.142C152.435 191.834 152.664 191.425 152.664 190.917ZM108.578 220H106.505L98.6309 207.947V220H96.5576V204.359H98.6309L106.526 216.466V204.359H108.578V220ZM119.105 218.851C118.332 219.76 117.197 220.215 115.7 220.215C114.461 220.215 113.516 219.857 112.864 219.141C112.22 218.417 111.894 217.35 111.887 215.939V208.377H113.874V215.886C113.874 217.647 114.59 218.528 116.022 218.528C117.541 218.528 118.55 217.963 119.052 216.831V208.377H121.039V220H119.148L119.105 218.851ZM127.968 212.62L130.546 208.377H132.866L129.063 214.124L132.984 220H130.686L128 215.649L125.314 220H123.005L126.926 214.124L123.123 208.377H125.422L127.968 212.62ZM137.679 205.562V208.377H139.849V209.913H137.679V217.121C137.679 217.587 137.775 217.938 137.969 218.174C138.162 218.403 138.492 218.518 138.957 218.518C139.186 218.518 139.501 218.475 139.902 218.389V220C139.38 220.143 138.871 220.215 138.377 220.215C137.489 220.215 136.819 219.946 136.368 219.409C135.917 218.872 135.691 218.109 135.691 217.121V209.913H133.575V208.377H135.691V205.562H137.679ZM149.044 204.359H151.117V215.435C151.117 216.931 150.666 218.102 149.764 218.947C148.868 219.792 147.673 220.215 146.176 220.215C144.622 220.215 143.411 219.817 142.545 219.022C141.678 218.228 141.245 217.114 141.245 215.682H143.308C143.308 216.577 143.551 217.275 144.038 217.776C144.532 218.278 145.245 218.528 146.176 218.528C147.028 218.528 147.715 218.26 148.238 217.723C148.768 217.186 149.037 216.434 149.044 215.467V204.359ZM161.086 216.917C161.086 216.38 160.882 215.965 160.474 215.671C160.073 215.37 159.367 215.112 158.357 214.897C157.355 214.683 156.556 214.425 155.962 214.124C155.375 213.823 154.938 213.465 154.651 213.05C154.372 212.634 154.232 212.14 154.232 211.567C154.232 210.615 154.633 209.809 155.436 209.15C156.245 208.492 157.276 208.162 158.529 208.162C159.847 208.162 160.914 208.502 161.73 209.183C162.554 209.863 162.966 210.733 162.966 211.793H160.968C160.968 211.249 160.735 210.78 160.27 210.386C159.811 209.992 159.231 209.795 158.529 209.795C157.806 209.795 157.24 209.952 156.832 210.268C156.424 210.583 156.22 210.994 156.22 211.503C156.22 211.983 156.41 212.344 156.789 212.588C157.169 212.831 157.853 213.064 158.841 213.286C159.836 213.508 160.642 213.773 161.258 214.081C161.874 214.389 162.328 214.761 162.622 215.198C162.923 215.628 163.073 216.154 163.073 216.777C163.073 217.816 162.658 218.65 161.827 219.28C160.996 219.903 159.919 220.215 158.594 220.215C157.663 220.215 156.839 220.05 156.123 219.721C155.407 219.391 154.845 218.933 154.437 218.346C154.035 217.751 153.835 217.11 153.835 216.423H155.822C155.858 217.089 156.123 217.619 156.617 218.013C157.118 218.399 157.777 218.593 158.594 218.593C159.346 218.593 159.947 218.442 160.398 218.142C160.857 217.834 161.086 217.425 161.086 216.917Z" fill="#F3FE74"/>
<circle cx="34.5" cy="29.3558" r="12.5" fill="#FF5956"/>
<circle cx="70.5" cy="29.3558" r="12.5" fill="#FFBA2F"/>
<circle cx="106.5" cy="29.3558" r="12.5" fill="#40C83F"/>
</g>
<defs>
<filter id="filter0_i" x="0" y="0" width="415" height="332" filterUnits="userSpaceOnUse" color-interpolation-filters="sRGB">
<feFlood flood-opacity="0" result="BackgroundImageFix"/>
<feBlend mode="normal" in="SourceGraphic" in2="BackgroundImageFix" result="shape"/>
<feColorMatrix in="SourceAlpha" type="matrix" values="0 0 0 0 0 0 0 0 0 0 0 0 0 0 0 0 0 0 127 0" result="hardAlpha"/>
<feOffset dy="2"/>
<feGaussianBlur stdDeviation="5"/>
<feComposite in2="hardAlpha" operator="arithmetic" k2="-1" k3="1"/>
<feColorMatrix type="matrix" values="0 0 0 0 0 0 0 0 0 0 0 0 0 0 0 0 0 0 0.25 0"/>
<feBlend mode="normal" in2="shape" result="effect1_innerShadow"/>
</filter>
<linearGradient id="paint0_linear" x1="-6.18398e-06" y1="330" x2="415" y2="1.1457e-05" gradientUnits="userSpaceOnUse">
<stop stop-color="#11162A" stop-opacity="0.85"/>
<stop offset="1" stop-color="#3D4057" stop-opacity="0.55"/>
</linearGradient>
</defs>
</svg>
